# xmcd
#
# Track frame offsets: 
#        150
#        18195
#        32582
#        42477
#        57490
#        70450
#        86430
#        97982
#        109450
#        120782
#        133625
#        142375
#        154457
#        166205
#
# Disc length: 2395 seconds
#
# Revision: 0
# Processed by: cddbd v1.5.2PL0 Copyright (c) Steve Scherf et al.
# Submitted via: ExactAudioCopy v0.99pb3
#
DISCID=c209590e
DTITLE=The Bakelite Age - Malleable Demons Plus Q
DYEAR=2004
DGENRE=In-Fidelity
TTITLE0=The Dead Play Well
TTITLE1=Physics And Wine
TTITLE2=The Denim Age
TTITLE3=Jonathon 2
TTITLE4=Nantucket Sleigh Ride
TTITLE5=Voodoo Flux
TTITLE6=Clocked Out
TTITLE7=Atomova
TTITLE8=Nostradamus
TTITLE9=Fuzzbug
TTITLE10=No Size
TTITLE11=Back To El Dorado
TTITLE12=Transcendental Ice Skates
TTITLE13=Silverback
EXTD=
EXTT0=
EXTT1=
EXTT2=
EXTT3=
EXTT4=
EXTT5=
EXTT6=
EXTT7=
EXTT8=
EXTT9=
EXTT10=
EXTT11=
EXTT12=
EXTT13=
PLAYORDER=
